<?xml version="1.0" standalone="no"?>
<!DOCTYPE svg PUBLIC "-//W3C//DTD SVG 20010904//EN"
 "http://www.w3.org/TR/2001/REC-SVG-20010904/DTD/svg10.dtd">
<svg version="1.0" xmlns="http://www.w3.org/2000/svg"
 width="700.000000pt" height="700.000000pt" viewBox="0 0 700.000000 700.000000"
 preserveAspectRatio="xMidYMid meet">
<metadata>
Created by potrace 1.14, written by Peter Selinger 2001-2017
</metadata>
<g transform="translate(0.000000,700.000000) scale(0.100000,-0.100000)"
fill="#000000" stroke="none">
<path d="M5233 6976 c-49 -22 -88 -66 -110 -126 -31 -81 -36 -94 -39 -105 -5
-17 -131 -378 -144 -410 -16 -41 -14 -113 3 -155 42 -97 171 -144 265 -96 56
29 86 80 139 233 28 82 75 215 103 297 44 126 52 157 48 202 -5 61 -34 109
-86 144 -42 29 -132 37 -179 16z"/>
<path d="M1422 6792 c-192 -32 -306 -134 -358 -320 -12 -43 -17 -116 -20 -291
-2 -129 -6 -236 -8 -239 -3 -2 -139 -6 -303 -7 -322 -2 -347 -6 -458 -63 -71
-37 -176 -144 -214 -220 -63 -125 -61 -79 -60 -1282 0 -1223 -3 -1158 71
-1290 74 -133 207 -229 358 -257 30 -6 178 -11 329 -11 150 -1 275 -3 278 -5
2 -3 5 -130 7 -283 3 -304 4 -311 64 -403 44 -66 114 -123 189 -152 l58 -22
825 -1 825 -1 1 -805 c2 -851 1 -847 47 -934 26 -49 79 -106 132 -140 103 -69
35 -66 1289 -66 915 0 1142 3 1188 14 116 27 225 122 270 236 20 51 22 75 25
315 1 143 3 270 3 282 l0 22 283 0 c155 1 296 3 312 6 219 40 396 210 434 419
15 79 15 2173 1 2266 -33 208 -226 397 -437 426 -26 4 -171 7 -320 7 l-273 0
0 41 c-3 285 -9 439 -20 481 -16 64 -63 162 -94 196 -63 72 -179 127 -296 144
-25 3 -385 6 -801 5 l-756 0 1 195 2 194 49 26 c141 74 233 187 275 337 18 64
19 103 19 422 -1 389 -6 437 -61 544 -45 89 -153 178 -242 199 -11 2 -41 9
-66 15 -72 17 -2448 17 -2548 0z m-382 -1431 c4 -393 1 -2012 -4 -2019 -3 -5
-68 -9 -148 -8 -125 2 -150 5 -194 25 -60 26 -113 78 -146 141 l-23 45 -2 815
c-1 549 2 832 9 867 12 59 60 123 111 150 46 23 152 38 282 39 l115 1 0 -56z
m5253 -1907 c72 -19 126 -60 156 -119 l26 -49 2 -831 c2 -800 1 -832 -18 -881
-23 -60 -80 -123 -140 -156 -40 -20 -60 -23 -201 -26 -148 -4 -158 -3 -159 15
0 24 0 1908 0 1996 l1 68 140 -2 c82 0 163 -7 193 -15z"/>
<path d="M6530 6789 c-51 -31 -737 -716 -765 -765 -44 -72 -37 -152 17 -218
54 -66 128 -86 211 -58 42 15 95 65 417 386 203 204 377 385 386 404 38 80 7
190 -67 239 -57 38 -149 43 -199 12z"/>
<path d="M6630 5454 c-69 -25 -163 -59 -210 -76 -200 -70 -223 -81 -257 -126
-39 -52 -50 -101 -34 -162 32 -124 136 -174 269 -131 159 52 489 173 512 188
109 71 107 251 -4 320 -68 44 -130 41 -276 -13z"/>
</g>
</svg>
